<?xml version="1.0" standalone="no"?><!DOCTYPE svg PUBLIC "-//W3C//DTD SVG 1.1//EN" "http://www.w3.org/Graphics/SVG/1.1/DTD/svg11.dtd"><svg t="1710575686355" class="icon" viewBox="0 0 1024 1024" version="1.1" xmlns="http://www.w3.org/2000/svg" p-id="14534" xmlns:xlink="http://www.w3.org/1999/xlink" width="32" height="32"><path d="M867.617973 724.031015V299.953881L509.440013 87.864115 151.262054 299.953881v424.077134L509.440013 936.115661l358.17796-212.084646z m59.683527-482.997784c12.257216 7.265242 19.896216 20.730771 19.896215 35.332934v471.252566c0 14.520244-7.639 27.985773-19.896215 35.327815l-397.965271 235.585323A39.536432 39.536432 0 0 1 509.440013 1024a39.536432 39.536432 0 0 1-19.896215-5.468131L91.578527 782.951666c-12.257216-7.347161-19.896216-20.812691-19.896215-35.332935V276.366165c0-14.602163 7.639-28.067693 19.896215-35.327814L489.543798 5.447907a39.055155 39.055155 0 0 1 39.792431 0l397.965271 235.580204zM336.062364 365.591937l173.403249 102.655461 173.32133-102.655461c19.01558-11.34074 43.366172-4.654056 54.348515 14.934961 11.059142 19.501978 4.536296 44.472087-14.561204 55.730908l-173.32133 102.655461v205.310922c0 22.517642-17.827746 40.795946-39.787311 40.795946-22.046604 0-39.792431-18.278304-39.792431-40.795946v-205.310922l-173.398129-102.655461c-19.0207-11.263941-25.548666-36.22893-14.561204-55.730908 10.982342-19.507098 35.327815-26.111863 54.348515-14.934961z" fill="#ffffff" p-id="14535" data-spm-anchor-id="a313x.search_index.0.i11.1cc93a81x5wyRr" class="selected"></path></svg>